HIERARCHY
ROOT Hips
{
	OFFSET -1.602300 6.242603 43.997101
	CHANNELS 6 Xposition Yposition Zposition Zrotation Xrotation Yrotation
	JOINT Chest
	{
		OFFSET -0.204900 1.598101 7.917301
		CHANNELS 6 Xposition Yposition Zposition Zrotation Xrotation Yrotation
		JOINT Chest2
		{
			OFFSET 0.000000 0.000000 3.404099
			CHANNELS 6 Xposition Yposition Zposition Zrotation Xrotation Yrotation
			JOINT Neck
			{
				OFFSET 0.000000 0.000000 7.928600
				CHANNELS 6 Xposition Yposition Zposition Zrotation Xrotation Yrotation
				JOINT Head
				{
					OFFSET 0.000000 0.000000 2.173897
					CHANNELS 6 Xposition Yposition Zposition Zrotation Xrotation Yrotation
					End Site
					{
						OFFSET 0.000000 0.000001 10.404503
					}
				}
			}
			JOINT LeftCollar
			{
				OFFSET 2.833800 -1.396299 4.843300
				CHANNELS 6 Xposition Yposition Zposition Zrotation Xrotation Yrotation
				JOINT LeftShoulder
				{
					OFFSET 4.363600 0.000000 0.000000
					CHANNELS 6 Xposition Yposition Zposition Zrotation Xrotation Yrotation
					JOINT LeftElbow
					{
						OFFSET 0.000000 -0.000001 -10.306900
						CHANNELS 6 Xposition Yposition Zposition Zrotation Xrotation Yrotation
						JOINT LeftWrist
						{
							OFFSET 0.000000 -0.000001 -12.404900
							CHANNELS 6 Xposition Yposition Zposition Zrotation Xrotation Yrotation
							End Site
							{
								OFFSET 0.000000 0.000000 -2.173901
							}
						}
					}
				}
			}
			JOINT RightCollar
			{
				OFFSET -2.354800 -1.897200 5.063099
				CHANNELS 6 Xposition Yposition Zposition Zrotation Xrotation Yrotation
				JOINT RightShoulder
				{
					OFFSET -4.375800 0.000000 0.000000
					CHANNELS 6 Xposition Yposition Zposition Zrotation Xrotation Yrotation
					JOINT RightElbow
					{
						OFFSET 0.000000 -0.000001 -10.005001
						CHANNELS 6 Xposition Yposition Zposition Zrotation Xrotation Yrotation
						JOINT RightWrist
						{
							OFFSET 0.000000 -0.000001 -13.174900
							CHANNELS 6 Xposition Yposition Zposition Zrotation Xrotation Yrotation
							End Site
							{
								OFFSET 0.000000 0.000000 -2.173901
							}
						}
					}
				}
			}
		}
	}
	JOINT LeftHip
	{
		OFFSET 2.240600 0.386800 -2.614101
		CHANNELS 6 Xposition Yposition Zposition Zrotation Xrotation Yrotation
		JOINT LeftKnee
		{
			OFFSET 0.000000 -0.000001 -18.592899
			CHANNELS 6 Xposition Yposition Zposition Zrotation Xrotation Yrotation
			JOINT LeftAnkle
			{
				OFFSET 0.000000 -0.000001 -18.765800
				CHANNELS 6 Xposition Yposition Zposition Zrotation Xrotation Yrotation
				End Site
				{
					OFFSET 0.000000 -8.655000 0.000000
				}
			}
		}
	}
	JOINT RightHip
	{
		OFFSET -2.014900 -0.220900 -2.615898
		CHANNELS 6 Xposition Yposition Zposition Zrotation Xrotation Yrotation
		JOINT RightKnee
		{
			OFFSET 0.000000 -0.000001 -18.633900
			CHANNELS 6 Xposition Yposition Zposition Zrotation Xrotation Yrotation
			JOINT RightAnkle
			{
				OFFSET 0.000000 -0.000001 -18.285101
				CHANNELS 6 Xposition Yposition Zposition Zrotation Xrotation Yrotation
				End Site
				{
					OFFSET 0.000000 -7.524500 0.000000
				}
			}
		}
	}
}
MOTION
Frames: 9
Frame Time: 0.041667
6.759999 9.221602 43.144806 10.345145 -3.476227 -0.039177 -0.204901 1.598101 7.917311 -10.502615 3.250853 1.965098 0.000000 -0.000001 3.404096 8.987284 -5.571691 0.373656 -0.000000 0.000000 7.928598 -4.090378 6.474796 -1.859137 -0.000000 0.000001 2.173897 -0.983742 -1.105231 -0.135973 2.833800 -1.396301 4.843292 -5.128284 7.714057 5.263406 4.363595 0.000004 0.000011 -40.575661 2.345132 -46.421476 0.000001 -0.000001 -10.306883 -175.560983 -163.816746 -170.341872 0.000003 -0.000002 -12.404889 -112.062238 176.362506 -178.064015 -2.354802 -1.897201 5.063093 13.259855 5.992137 -4.769716 -4.375799 0.000003 -0.000010 52.881415 -41.478936 100.234829 -0.000005 0.000006 -10.005002 -82.699309 -11.346204 -48.224209 -0.000002 0.000001 -13.174899 45.033128 -21.835189 19.730694 2.240600 0.386801 -2.614094 -13.498388 -2.593183 -1.659142 -0.000002 0.000000 -18.592897 16.914069 23.214356 13.659977 -0.000002 -0.000001 -18.765800 5.192148 8.128799 1.255774 -2.014900 -0.220894 -2.615897 -95.846890 -37.866350 -61.020821 -0.000001 0.000008 -18.633888 135.528616 46.475674 -120.472885 0.000009 0.000002 -18.285097 -4.960565 46.640538 -57.410178
6.756099 9.214705 43.136604 10.193802 -3.448009 -0.082427 -0.204901 1.598099 7.917310 -10.353377 3.245114 1.985602 0.000001 -0.000002 3.404104 8.956179 -5.564030 0.375542 0.000001 -0.000003 7.928606 -4.086869 6.431863 -1.830668 -0.000001 -0.000000 2.173901 -0.979568 -1.134647 -0.124094 2.833801 -1.396302 4.843307 -5.220253 7.698859 5.148883 4.363596 0.000005 0.000009 -40.944802 1.898900 -46.171006 -0.000001 0.000007 -10.306890 -175.989386 -163.616676 -170.181376 0.000001 0.000000 -12.404893 -112.675322 176.441449 -177.682344 -2.354800 -1.897202 5.063107 13.310093 5.933878 -4.708266 -4.375794 0.000004 -0.000006 53.039991 -41.571335 99.814308 0.000003 0.000010 -10.004994 -82.694097 -11.236687 -49.048401 -0.000000 -0.000004 -13.174893 46.752355 -21.803390 20.343169 2.240599 0.386799 -2.614093 -13.364420 -2.759367 -1.685271 -0.000001 0.000001 -18.592899 16.685520 23.522436 13.752344 -0.000000 -0.000001 -18.765799 5.286921 7.891357 1.417892 -2.014900 -0.220897 -2.615892 -95.618216 -37.952940 -60.745455 -0.000005 0.000009 -18.633888 135.785855 46.192419 -121.100197 0.000008 0.000002 -18.285093 -5.103504 46.438285 -57.451911
6.753100 9.209503 43.127502 10.022307 -3.430993 -0.135754 -0.204900 1.598100 7.917312 -10.190414 3.351514 2.018314 0.000000 -0.000001 3.404105 8.919280 -5.647444 0.393486 0.000000 0.000000 7.928593 -4.055468 6.380785 -1.815208 0.000000 0.000000 2.173909 -0.982870 -1.163455 -0.111854 2.833800 -1.396299 4.843296 -5.475964 7.709537 5.000624 4.363594 0.000005 0.000005 -40.997794 1.267966 -45.934702 0.000003 0.000001 -10.306896 -176.637435 -163.390843 -170.031603 0.000003 0.000001 -12.404890 -113.247412 176.392053 -177.197606 -2.354801 -1.897200 5.063095 13.370259 5.880632 -4.644944 -4.375797 0.000006 -0.000002 53.229389 -41.698995 99.391731 -0.000004 0.000009 -10.005000 -82.674700 -11.124524 -49.831445 -0.000004 0.000005 -13.174893 48.494022 -21.767048 20.965665 2.240600 0.386799 -2.614090 -13.205320 -2.899962 -1.674454 -0.000001 -0.000001 -18.592897 16.125971 23.757409 13.928301 -0.000000 0.000001 -18.765799 5.643002 7.558291 1.722002 -2.014898 -0.220898 -2.615892 -95.337447 -38.072718 -60.457454 -0.000005 0.000007 -18.633890 135.922964 45.837236 -121.622242 0.000008 0.000000 -18.285091 -5.159387 45.989805 -57.866175
6.749801 9.206005 43.117004 9.839798 -3.423389 -0.196559 -0.204902 1.598105 7.917303 -10.010405 3.335737 2.065622 0.000000 -0.000001 3.404102 8.862082 -5.588546 0.387675 0.000000 -0.000001 7.928599 -3.991576 6.313338 -1.817956 0.000000 -0.000000 2.173898 -0.991265 -1.185544 -0.100306 2.833801 -1.396301 4.843306 -5.817078 7.728599 4.807479 4.363594 0.000004 0.000004 -40.883798 0.531821 -45.690957 0.000001 0.000000 -10.306895 -177.096505 -163.152401 -169.799022 0.000003 0.000001 -12.404886 -113.886724 176.227651 -176.907883 -2.354802 -1.897200 5.063103 13.437924 5.846789 -4.574396 -4.375795 0.000006 -0.000004 53.485862 -41.910365 99.013038 0.000000 0.000007 -10.005000 -82.587717 -10.987740 -50.587082 -0.000000 0.000010 -13.174883 50.390841 -21.877176 20.875705 2.240598 0.386805 -2.614098 -13.032514 -3.034729 -1.634598 -0.000001 0.000000 -18.592894 15.445568 23.939403 14.108358 -0.000001 0.000001 -18.765800 6.093979 7.277252 2.052525 -2.014899 -0.220895 -2.615898 -95.076356 -38.186717 -60.215617 -0.000003 0.000002 -18.633888 136.021264 45.406995 -122.074482 0.000010 0.000001 -18.285093 -5.487139 45.687224 -58.322924
6.745599 9.202605 43.105206 9.659481 -3.420774 -0.263466 -0.204900 1.598098 7.917307 -9.833617 3.324288 2.124774 0.000001 0.000000 3.404101 8.799211 -5.528826 0.379792 -0.000001 0.000000 7.928604 -3.913417 6.238768 -1.831061 -0.000000 0.000002 2.173895 -0.998908 -1.200381 -0.091924 2.833801 -1.396299 4.843306 -6.105930 7.739438 4.610457 4.363600 0.000005 0.000014 -40.842219 -0.170306 -45.463136 -0.000003 0.000003 -10.306890 -177.552434 -162.899110 -169.576877 0.000000 -0.000001 -12.404896 -114.489748 176.054806 -176.809391 -2.354802 -1.897201 5.063109 13.496321 5.832994 -4.500736 -4.375793 0.000005 -0.000004 53.762253 -42.159186 98.626962 0.000006 0.000004 -10.004996 -82.388590 -10.950706 -51.316113 -0.000001 0.000005 -13.174895 52.008988 -21.805548 21.547155 2.240600 0.386796 -2.614101 -12.860418 -3.169800 -1.575792 -0.000001 -0.000001 -18.592894 14.943354 24.123274 14.209281 0.000000 0.000001 -18.765797 6.420723 7.069569 2.248084 -2.014897 -0.220900 -2.615897 -94.856807 -38.283180 -60.020964 -0.000002 0.000006 -18.633884 136.170886 45.032229 -122.523444 0.000006 0.000001 -18.285097 -5.755564 45.378131 -58.920839
6.740598 9.199102 43.092907 9.496859 -3.417335 -0.332129 -0.204900 1.598099 7.917312 -9.674371 3.311697 2.185998 0.000001 0.000002 3.404100 8.734157 -5.468639 0.370954 0.000000 -0.000000 7.928600 -3.830414 6.159748 -1.843689 0.000000 0.000000 2.173896 -1.004031 -1.207228 -0.083251 2.833800 -1.396300 4.843307 -6.319253 7.736628 4.432758 4.363598 0.000007 0.000005 -40.943436 -0.763229 -45.268339 -0.000002 0.000003 -10.306897 -178.032514 -162.604442 -169.398431 0.000001 0.000001 -12.404894 -114.668645 175.882453 -176.792671 -2.354801 -1.897200 5.063105 13.573066 5.846144 -4.444869 -4.375795 0.000002 0.000000 54.028681 -42.337443 98.255536 0.000003 0.000011 -10.005000 -82.170837 -11.017537 -52.016477 -0.000003 0.000005 -13.174892 53.443280 -21.738771 22.164380 2.240600 0.386799 -2.614089 -12.706916 -3.305597 -1.526828 0.000000 -0.000000 -18.592896 14.671038 24.310716 14.260504 -0.000001 0.000001 -18.765800 6.590394 6.957314 2.256480 -2.014898 -0.220897 -2.615894 -94.742196 -38.319164 -59.900499 -0.000005 0.000003 -18.633888 136.409697 44.661456 -122.974482 0.000010 0.000002 -18.285097 -5.955690 45.059123 -59.552597
6.734899 9.196803 43.080009 9.369968 -3.399420 -0.389592 -0.204900 1.598097 7.917305 -9.549003 3.286549 2.225075 0.000000 0.000000 3.404105 8.667607 -5.416326 0.362813 0.000000 -0.000000 7.928598 -3.746657 6.086856 -1.843978 -0.000000 0.000002 2.173909 -1.004879 -1.199862 -0.081141 2.833802 -1.396299 4.843296 -6.458800 7.728075 4.292624 4.363597 0.000005 -0.000007 -41.157152 -1.279082 -45.113956 -0.000001 0.000002 -10.306892 -178.547005 -162.290691 -169.252634 0.000004 0.000000 -12.404892 -114.581054 175.732612 -176.894646 -2.354800 -1.897200 5.063097 13.997479 5.948268 -4.570073 -4.375795 0.000004 -0.000009 54.105644 -42.441044 98.118058 0.000002 0.000010 -10.004999 -81.861245 -11.163184 -52.682806 -0.000001 -0.000001 -13.174900 54.734127 -21.702276 22.746953 2.240601 0.386797 -2.614102 -12.592019 -3.463002 -1.502541 -0.000000 0.000000 -18.592899 14.706692 24.494464 14.225015 -0.000002 0.000000 -18.765797 6.568307 6.988843 2.011159 -2.014898 -0.220900 -2.615901 -94.690369 -38.324953 -59.815293 -0.000006 0.000006 -18.633884 136.578184 44.198158 -123.347903 0.000010 0.000001 -18.285095 -6.206165 44.659749 -60.272355
6.728798 9.195105 43.066906 9.273012 -3.374834 -0.442870 -0.204901 1.598097 7.917308 -9.459321 3.379710 2.250551 0.000001 -0.000001 3.404101 8.625299 -5.514651 0.373197 -0.000000 -0.000001 7.928601 -3.688077 6.041761 -1.823823 -0.000000 -0.000000 2.173906 -0.999015 -1.181436 -0.088596 2.833800 -1.396300 4.843301 -6.537070 7.730176 4.241369 4.363597 0.000005 0.000007 -41.553686 -1.618641 -45.021089 0.000001 0.000001 -10.306900 -178.925138 -161.984944 -169.132573 0.000003 0.000001 -12.404892 -114.401666 175.598822 -177.056863 -2.354801 -1.897200 5.063102 14.094303 6.017906 -4.559319 -4.375796 0.000007 -0.000002 54.323954 -42.522319 97.799252 0.000002 0.000006 -10.005002 -81.381888 -11.577752 -53.289385 -0.000001 0.000006 -13.174894 55.641176 -21.674584 23.255513 2.240599 0.386798 -2.614092 -12.509136 -3.635747 -1.493256 0.000000 0.000000 -18.592901 14.885014 24.723924 14.156765 0.000000 -0.000000 -18.765799 6.428588 7.032011 1.713644 -2.014900 -0.220894 -2.615897 -94.734580 -38.292793 -59.789960 -0.000005 0.000006 -18.633888 136.822008 43.774867 -123.758042 0.000013 0.000001 -18.285095 -6.384089 44.343586 -60.855066
6.723599 9.193205 43.054005 9.200005 -3.342235 -0.492535 -0.204899 1.598103 7.917313 -9.387387 3.378678 2.264286 -0.000001 -0.000001 3.404101 8.597585 -5.550522 0.372610 0.000000 -0.000000 7.928595 -3.658572 6.025794 -1.785572 0.000001 -0.000001 2.173913 -0.982582 -1.154616 -0.108197 2.833801 -1.396299 4.843297 -6.568002 7.741401 4.240882 4.363598 0.000002 0.000004 -42.045371 -1.862582 -44.970427 -0.000001 0.000004 -10.306896 -179.494639 -161.697092 -169.120975 0.000001 -0.000001 -12.404890 -113.998521 175.490892 -176.790431 -2.354801 -1.897200 5.063098 14.192588 6.068244 -4.567977 -4.375796 0.000004 -0.000004 54.421390 -42.487625 97.396701 -0.000001 0.000011 -10.004997 -81.090219 -11.809996 -53.932806 -0.000003 0.000007 -13.174891 56.750481 -21.646709 23.737363 2.240601 0.386802 -2.614094 -12.450567 -3.803296 -1.499310 -0.000001 0.000001 -18.592896 15.103119 24.959077 14.097557 -0.000000 0.000000 -18.765799 6.252027 7.057440 1.407781 -2.014899 -0.220897 -2.615894 -94.819589 -38.253646 -59.778574 -0.000000 0.000004 -18.633888 137.064234 43.392424 -124.161105 0.000007 0.000003 -18.285095 -6.494926 44.065126 -61.483225
